:FULLY-SPECIFIED
:FORCE-ALL-JOINTS-BE-3DOF
:DEGREES
1
root 6.24314 16.836 -28.1378 9.0217 -2.52979 -3.05774
lfemur -20.3712 2.30257 -19.9954
ltibia 35.927 0 0
lfoot -38.654 3.93715 0
ltoes 38.9541 0 0
rfemur -19.4747 0.22019 19.5256
rtibia 36.0342 0 0
rfoot -30.3779 -10.4967 0
rtoes 21.4483 0 0
lowerback -2.05144 3.66971 -5.03766
upperback -2.66728 5.00355 3.49279
thorax -2.36397 2.67023 6.42441
lowerneck -9.84699 -2.36864 1.94815
upperneck -1.37933 -3.32542 -1.65382
head 1.16433 -1.69823 -0.975663
lclavicle -1.65488e-14 -3.69739e-14 0
lhumerus -41.7253 -10.8128 99.8312
lradius 34.5094 0 0
lwrist 2.17521 0 0
lhand -10.5949 9.65639 0
lfingers 7.12502 0 0
lthumb 15.4107 39.062 0
rclavicle -1.65488e-14 -3.69739e-14 0
rhumerus -43.273 -4.86223 -84.2703
rradius 40.4763 0 0
rwrist 9.89469 0 0
rhand -23.7965 -22.476 0
rfingers 7.12502 0 0
rthumb 2.67393 -52.439 0
2
root 6.24276 16.8363 -28.1369 9.02632 -2.54508 -3.05601
lfemur -20.3658 2.30628 -19.9974
ltibia 35.9175 0 0
lfoot -38.6554 3.95068 0
ltoes 38.9558 0 0
rfemur -19.4605 0.227116 19.5233
rtibia 36.002 0 0
rfoot -30.3914 -10.4915 0
rtoes 21.4907 0 0
lowerback -2.06972 3.67578 -5.04525
upperback -2.66381 5.01274 3.49153
thorax -2.3508 2.6741 6.42905
lowerneck -9.85065 -2.37143 1.95275
upperneck -1.38302 -3.32975 -1.65718
head 1.16361 -1.70045 -0.977618
lclavicle -1.60979e-14 -3.65913e-14 0
lhumerus -41.733 -10.8213 99.8262
lradius 34.5109 0 0
lwrist 2.18478 0 0
lhand -10.6107 9.52716 0
lfingers 7.12502 0 0
lthumb 15.3955 38.9339 0
rclavicle -1.60979e-14 -3.65913e-14 0
rhumerus -43.2668 -4.86577 -84.2752
rradius 40.4735 0 0
rwrist 9.89695 0 0
rhand -23.7866 -22.4781 0
rfingers 7.12502 0 0
rthumb 2.68351 -52.4412 0
3
root 6.24111 16.8374 -28.1344 9.04091 -2.58319 -3.04962
lfemur -20.3501 2.31386 -20.0019
ltibia 35.8862 0 0
lfoot -38.6518 3.98696 0
ltoes 38.9554 0 0
rfemur -19.4139 0.267164 19.5174
rtibia 35.8998 0 0
rfoot -30.4179 -10.5036 0
rtoes 21.5858 0 0
lowerback -2.12733 3.68831 -5.05442
upperback -2.65263 5.03222 3.4817
thorax -2.30678 2.68142 6.42908
lowerneck -9.85973 -2.37676 1.96617
upperneck -1.39619 -3.33867 -1.66034
head 1.16061 -1.70497 -0.981064
lclavicle -1.48784e-14 -3.54485e-14 0
lhumerus -41.7528 -10.8469 99.8042
lradius 34.5215 0 0
lwrist 2.21663 0 0
lhand -10.6538 9.17309 0
lfingers 7.12502 0 0
lthumb 15.354 38.5829 0
rclavicle -1.48784e-14 -3.54485e-14 0
rhumerus -43.2432 -4.87584 -84.2997
rradius 40.4637 0 0
rwrist 9.90567 0 0
rhand -23.7721 -22.4745 0
rfingers 7.12502 0 0
rthumb 2.69747 -52.4379 0
4
root 6.23756 16.8392 -28.1304 9.06608 -2.63368 -3.03724
lfemur -20.3251 2.32079 -20.0067
ltibia 35.83 0 0
lfoot -38.634 4.03984 0
ltoes 38.9458 0 0
rfemur -19.3312 0.3632 19.5097
rtibia 35.7232 0 0
rfoot -30.4397 -10.567 0
rtoes 21.6915 0 0
lowerback -2.2264 3.70003 -5.04821
upperback -2.63301 5.05155 3.45608
thorax -2.22734 2.68671 6.4074
lowerneck -9.87168 -2.38073 1.98764
upperneck -1.42112 -3.34694 -1.65472
head 1.15435 -1.70903 -0.982941
lclavicle -1.30814e-14 -3.35769e-14 0
lhumerus -41.7804 -10.8887 99.7572
lradius 34.5484 0 0
lwrist 2.27388 0 0
lhand -10.718 8.64353 0
lfingers 7.12502 0 0
lthumb 15.2921 38.058 0
rclavicle -1.30814e-14 -3.35769e-14 0
rhumerus -43.1967 -4.89152 -84.355
rradius 40.4451 0 0
rwrist 9.92306 0 0
rhand -23.7723 -22.4528 0
rfingers 7.12502 0 0
rthumb 2.69725 -52.4168 0
5
root 6.23176 16.842 -28.125 9.10171 -2.68774 -3.01813
lfemur -20.2923 2.32358 -20.0102
ltibia 35.7481 0 0
lfoot -38.5953 4.10365 0
ltoes 38.9223 0 0
rfemur -19.2116 0.530045 19.5013
rtibia 35.4725 0 0
rfoot -30.4433 -10.7052 0
rtoes 21.7748 0 0
lowerback -2.36637 3.7053 -5.01423
upperback -2.60484 5.06262 3.40985
thorax -2.11083 2.68581 6.35181
lowerneck -9.88435 -2.38038 2.01613
upperneck -1.45894 -3.35053 -1.63409
head 1.14425 -1.71052 -0.980951
lclavicle -1.0887e-14 -3.10402e-14 0
lhumerus -41.8119 -10.9454 99.6802
lradius 34.5965 0 0
lwrist 2.35762 0 0
lhand -10.7976 7.98634 0
lfingers 7.12502 0 0
lthumb 15.2154 37.4066 0
rclavicle -1.0887e-14 -3.10402e-14 0
rhumerus -43.1241 -4.91183 -84.4486
rradius 40.4171 0 0
rwrist 9.95039 0 0
rhand -23.8014 -22.4045 0
rfingers 7.12502 0 0
rthumb 2.66918 -52.3693 0
6
root 6.22356 16.8455 -28.1186 9.14702 -2.73822 -2.9922
lfemur -20.2531 2.31977 -20.0112
ltibia 35.6415 0 0
lfoot -38.5323 4.17318 0
ltoes 38.8818 0 0
rfemur -19.0566 0.774469 19.4934
rtibia 35.1532 0 0
rfoot -30.4191 -10.9319 0
rtoes 21.811 0 0
lowerback -2.544 3.70013 -4.94465
upperback -2.56861 5.05961 3.34069
thorax -1.95848 2.6759 6.2551
lowerneck -9.89601 -2.3737 2.05034
upperneck -1.50968 -3.34658 -1.59458
head 1.13011 -1.70796 -0.973551
lclavicle -8.46389e-15 -2.79342e-14 0
lhumerus -41.8441 -11.0149 99.5713
lradius 34.668 0 0
lwrist 2.46689 0 0
lhand -10.8868 7.24792 0
lfingers 7.12502 0 0
lthumb 15.1295 36.6746 0
rclavicle -8.46389e-15 -2.79342e-14 0
rhumerus -43.0247 -4.93563 -84.5833
rradius 40.3795 0 0
rwrist 9.98795 0 0
rhand -23.8685 -22.3246 0
rfingers 7.12502 0 0
rthumb 2.6044 -52.2905 0
7
root 6.21306 16.8498 -28.1115 9.20049 -2.7796 -2.95996
lfemur -20.2093 2.30792 -20.0089
ltibia 35.5132 0 0
lfoot -38.4439 4.24368 0
ltoes 38.8235 0 0
rfemur -18.871 1.0952 19.4868
rtibia 34.7757 0 0
rfoot -30.3621 -11.2501 0
rtoes 21.7842 0 0
lowerback -2.75332 3.6822 -4.83619
upperback -2.52546 5.03902 3.24868
thorax -1.77445 2.65544 6.11496
lowerneck -9.90534 -2.35958 2.08873
upperneck -1.57222 -3.33342 -1.53472
head 1.11213 -1.70048 -0.959959
lclavicle -5.96975e-15 -2.43868e-14 0
lhumerus -41.8743 -11.0943 99.4319
lradius 34.7628 0 0
lwrist 2.59864 0 0
lhand -10.98 6.47321 0
lfingers 7.12502 0 0
lthumb 15.0397 35.9066 0
rclavicle -5.96975e-15 -2.43868e-14 0
rhumerus -42.9004 -4.96173 -84.7582
rradius 40.3332 0 0
rwrist 10.0351 0 0
rhand -23.9777 -22.2119 0
rfingers 7.12502 0 0
rthumb 2.49893 -52.179 0
8
root 6.20059 16.8547 -28.1039 9.25993 -2.80799 -2.92253
lfemur -20.1632 2.28764 -20.0031
ltibia 35.3682 0 0
lfoot -38.3321 4.31086 0
ltoes 38.7485 0 0
rfemur -18.662 1.48291 19.4821
rtibia 34.3555 0 0
rfoot -30.271 -11.653 0
rtoes 21.6872 0 0
lowerback -2.98569 3.65083 -4.69018
upperback -2.4771 4.99966 3.13637
thorax -1.5658 2.62423 5.93404
lowerneck -9.91142 -2.33785 2.12948
upperneck -1.64429 -3.31057 -1.45536
head 1.09088 -1.68787 -0.940152
lclavicle -3.55102e-15 -2.05582e-14 0
lhumerus -41.9002 -11.18 99.2663
lradius 34.8781 0 0
lwrist 2.7478 0 0
lhand -11.0721 5.70569 0
lfingers 7.12502 0 0
lthumb 14.951 35.1457 0
rclavicle -3.55102e-15 -2.05582e-14 0
rhumerus -42.7554 -4.9888 -84.9679
rradius 40.28 0 0
rwrist 10.0902 0 0
rhand -24.1281 -22.0689 0
rfingers 7.12502 0 0
rthumb 2.35362 -52.0374 0
9
root 6.18672 16.8599 -28.0963 9.32244 -2.82114 -2.88166
lfemur -20.117 2.25958 -19.9937
ltibia 35.2134 0 0
lfoot -38.2017 4.3709 0
ltoes 38.6601 0 0
rfemur -18.4396 1.92023 19.4796
rtibia 33.9131 0 0
rfoot -30.149 -12.1232 0
rtoes 21.5214 0 0
lowerback -3.22977 3.60699 -4.51247
upperback -2.42587 4.94263 3.00873
thorax -1.34251 2.58337 5.71992
lowerneck -9.91374 -2.30928 2.17049
upperneck -1.72252 -3.27876 -1.35976
head 1.06735 -1.67052 -0.914864
lclavicle -1.34294e-15 -1.66406e-14 0
lhumerus -41.9202 -11.2677 99.0821
lradius 35.009 0 0
lwrist 2.90723 0 0
lhand -11.1579 4.98736 0
lfingers 7.12502 0 0
lthumb 14.8683 34.4336 0
rclavicle -1.34294e-15 -1.66406e-14 0
rhumerus -42.5964 -5.01545 -85.2028
rradius 40.2222 0 0
rwrist 10.1508 0 0
rhand -24.3139 -21.9015 0
rfingers 7.12502 0 0
rthumb 2.17417 -51.8715 0
10
root 6.17226 16.8651 -28.0891 9.38442 -2.81845 -2.83972
lfemur -20.0734 2.22541 -19.9815
ltibia 35.0578 0 0
lfoot -38.0604 4.42044 0
ltoes 38.5633 0 0
rfemur -18.2167 2.38174 19.4796
rtibia 33.4738 0 0
rfoot -30.0033 -12.6333 0
rtoes 21.2969 0 0
lowerback -3.47152 3.55329 -4.3135
upperback -2.37472 4.87136 2.8732
thorax -1.11745 2.53528 5.48514
lowerneck -9.91221 -2.27556 2.20944
upperneck -1.80237 -3.23986 -1.25352
head 1.0429 -1.64946 -0.88559
lclavicle 5.30422e-16 -1.28584e-14 0
lhumerus -41.9332 -11.3524 98.8901
lradius 35.1478 0 0
lwrist 3.06774 0 0
lhand -11.2327 4.35875 0
lfingers 7.12502 0 0
lthumb 14.7963 33.8104 0
rclavicle 5.30422e-16 -1.28584e-14 0
rhumerus -42.4327 -5.04014 -85.4495
rradius 40.1633 0 0
rwrist 10.2133 0 0
rhand -24.5241 -21.7196 0
rfingers 7.12502 0 0
rthumb 1.97116 -51.6911 0
11
root 6.15824 16.87 -28.0827 9.44159 -2.80095 -2.79969
lfemur -20.0352 2.18783 -19.9674
ltibia 34.9122 0 0
lfoot -37.9185 4.45658 0
ltoes 38.4654 0 0
rfemur -18.0089 2.83398 19.4818
rtibia 33.0683 0 0
rfoot -29.8453 -13.1457 0
rtoes 21.0325 0 0
lowerback -3.6942 3.49399 -4.10827
upperback -2.32722 4.79157 2.73964
thorax -0.906405 2.4837 5.24717
lowerneck -9.90714 -2.23933 2.24371
upperneck -1.8782 -3.19699 -1.14461
head 1.01927 -1.62637 -0.854582
lclavicle 1.95619e-15 -9.46823e-15 0
lhumerus -41.9387 -11.4284 98.7039
lradius 35.2843 0 0
lwrist 3.21808 0 0
lhand -11.2917 3.85895 0
lfingers 7.12502 0 0
lthumb 14.7394 33.3149 0
rclavicle 1.95619e-15 -9.46823e-15 0
rhumerus -42.2759 -5.06126 -85.6901
rradius 40.1075 0 0
rwrist 10.2733 0 0
rhand -24.7428 -21.5367 0
rfingers 7.12502 0 0
rthumb 1.75997 -51.5095 0
12
root 6.14595 16.8741 -28.0778 9.48894 -2.77129 -2.76516
lfemur -20.0058 2.15059 -19.9528
ltibia 34.7896 0 0
lfoot -37.7894 4.47689 0
ltoes 38.3755 0 0
rfemur -17.8344 3.23543 19.4859
rtibia 32.7318 0 0
rfoot -29.6907 -13.6123 0
rtoes 20.7557 0 0
lowerback -3.87839 3.43503 -3.91636
upperback -2.28753 4.71129 2.62036
thorax -0.728082 2.43369 5.0284
lowerneck -9.89924 -2.20412 2.27043
upperneck -1.94322 -3.1544 -1.04337
head 0.998629 -1.60354 -0.824853
lclavicle 2.83268e-15 -6.75868e-15 0
lhumerus -41.9367 -11.4891 98.5406
lradius 35.406 0 0
lwrist 3.34493 0 0
lhand -11.3307 3.52556 0
lfingers 7.12502 0 0
lthumb 14.7019 32.9843 0
rclavicle 2.83268e-15 -6.75868e-15 0
rhumerus -42.1402 -5.07709 -85.9025
rradius 40.0596 0 0
rwrist 10.3253 0 0
rhand -24.9489 -21.3698 0
rfingers 7.12502 0 0
rthumb 1.56088 -51.3438 0
